<?xml version="1.0" encoding="utf-8"?>
<!-- Generator: Adobe Illustrator 20.0.0, SVG Export Plug-In . SVG Version: 6.00 Build 0)  -->
<svg version="1.1" id="Layer_1" xmlns="http://www.w3.org/2000/svg" xmlns:xlink="http://www.w3.org/1999/xlink" x="0px" y="0px"
	 viewBox="0 0 267.5 64.7" style="enable-background:new 0 0 267.5 64.7;" xml:space="preserve">
<style type="text/css">
	.st0{opacity:0.18;fill:#9CE6F0;}
	.st1{fill:#9CE6F0;}
	.st2{fill:#FFFFFF;}
	.st3{opacity:0.7;}
	.st4{opacity:0.5;}
	.st5{opacity:0.22;}
	.st6{fill:#A8D7FF;}
	.st7{fill:#484F59;}
	.st8{opacity:0.65;}
	.st9{fill:#3A4245;}
</style>
<rect x="3.7" y="10" class="st0" width="65.5" height="45.4"/>
<g>
	<g>
		<g>
			<path class="st1" d="M101.3,8.9c0,0.4-0.4,0.8-0.8,0.8h-2.4c-2.6,0-4.8,2.1-4.8,4.8v35.5c0,2.6,2.1,4.8,4.8,4.8h2.4
				c0.4,0,0.8,0.4,0.8,0.8s-0.4,0.8-0.8,0.8h-2.4c-3.5,0-6.4-2.8-6.4-6.4V14.5c0-3.5,2.8-6.4,6.4-6.4h2.4
				C100.9,8.1,101.3,8.5,101.3,8.9z"/>
		</g>
		<g>
			<path class="st1" d="M69.3,31.4h31.4c0.4,0,0.8,0.4,0.8,0.8c0,0.4-0.4,0.8-0.8,0.8H69.3V31.4z"/>
		</g>
		<g>
			<g>
				<path class="st2" d="M116.4,45.2v17.5H99.9V45.2H116.4z M114.8,61.1V46.7h-13.3v14.4H114.8z"/>
			</g>
			<g>
				<path class="st2" d="M116.4,23.4V41H99.9V23.4H116.4z M114.8,39.4V25h-13.3v14.4H114.8z"/>
			</g>
			<g>
				<path class="st2" d="M116.4,1.7v17.5H99.9V1.7H116.4z M114.8,17.7V3.3h-13.3v14.4H114.8z"/>
			</g>
		</g>
	</g>
	<g class="st3">
		<g>
			<g>
				<path class="st2" d="M166.9,45.1v17.5h-16.4V45.1H166.9z M165.3,61.1V46.7h-13.3v14.4H165.3z"/>
			</g>
			<g>
				<path class="st2" d="M166.9,23.4v17.5h-16.4V23.4H166.9z M165.3,39.4V25h-13.3v14.4H165.3z"/>
			</g>
			<g>
				<path class="st2" d="M166.9,1.7v17.5h-16.4V1.7H166.9z M165.3,17.6V3.3h-13.3v14.4H165.3z"/>
			</g>
		</g>
		<g>
			<path class="st1" d="M150.4,56.2h-1.8c-3.5,0-6.4-2.8-6.4-6.4V14.4c0-3.5,2.8-6.4,6.4-6.4h1.7v1.6h-1.7c-2.6,0-4.8,2.1-4.8,4.8
				v35.5c0,2.6,2.1,4.8,4.8,4.8h1.8V56.2z"/>
		</g>
		<g>
			<rect x="116.4" y="31.4" class="st1" width="34.1" height="1.6"/>
		</g>
	</g>
	<g class="st4">
		<g>
			<g>
				<path class="st2" d="M215.9,45v17.5h-16.4V45H215.9z M214.3,61V46.6H201V61H214.3z"/>
			</g>
			<g>
				<path class="st2" d="M215.9,23.3v17.5h-16.4V23.3H215.9z M214.3,39.3V24.9H201v14.4H214.3z"/>
			</g>
			<g>
				<path class="st2" d="M215.9,1.6v17.5h-16.4V1.6H215.9z M214.3,17.5V3.2H201v14.4H214.3z"/>
			</g>
		</g>
		<g>
			<path class="st1" d="M199.5,56.1h-1.9c-3.5,0-6.4-2.8-6.4-6.4V14.3c0-3.5,2.8-6.4,6.4-6.4h1.8v1.6h-1.8c-2.6,0-4.8,2.1-4.8,4.8
				v35.5c0,2.6,2.1,4.8,4.8,4.8h1.9V56.1z"/>
		</g>
		<g>
			<rect x="167" y="31.3" class="st1" width="32.4" height="1.6"/>
		</g>
	</g>
	<g class="st5">
		<g>
			<g>
				<path class="st2" d="M265,45v17.5h-16.4V45H265z M263.4,61V46.6h-13.3V61H263.4z"/>
			</g>
			<g>
				<path class="st2" d="M265,23.3v17.5h-16.4V23.3H265z M263.4,39.3V24.9h-13.3v14.4H263.4z"/>
			</g>
			<g>
				<path class="st2" d="M265,1.6v17.5h-16.4V1.6H265z M263.4,17.5V3.2h-13.3v14.4H263.4z"/>
			</g>
		</g>
		<g>
			<path class="st1" d="M248.5,56.2h-1.8c-3.5,0-6.4-2.8-6.4-6.4V14.3c0-3.5,2.8-6.4,6.4-6.4h1.8v1.6h-1.8c-2.6,0-4.8,2.1-4.8,4.8
				v35.5c0,2.6,2.1,4.8,4.8,4.8h1.8V56.2z"/>
		</g>
		<g>
			<rect x="215.9" y="31.3" class="st1" width="32.6" height="1.6"/>
		</g>
	</g>
	<rect x="3.5" y="2.6" class="st6" width="65.8" height="7.5"/>
	<g>
		<g>
			<g>
				<g>
					<path class="st7" d="M69.5,56.2H3.2V2.5h66.3V56.2z M3.9,55.4h64.9V3.2H3.9V55.4z"/>
				</g>
			</g>
		</g>
		<g>
			<g>
				<path class="st7" d="M69.5,56.1H3.2V9.9h66.3V56.1z M3.9,55.4h64.8V10.6H3.9V55.4z"/>
			</g>
		</g>
		<g>
			<g>
				<g>
					<g>
						<rect x="6.4" y="5.6" class="st7" width="1.7" height="1.5"/>
					</g>
				</g>
				<g>
					<g>
						<rect x="9.2" y="5.6" class="st7" width="1.7" height="1.5"/>
					</g>
				</g>
				<g>
					<g>
						<rect x="12.1" y="5.6" class="st7" width="1.7" height="1.5"/>
					</g>
				</g>
			</g>
		</g>
		<g class="st8">
			<g>
				<g>
					<rect x="16.4" y="14.1" class="st9" width="17.5" height="0.7"/>
				</g>
			</g>
			<g>
				<g>
					<rect x="17.8" y="16.1" class="st9" width="2.9" height="0.7"/>
				</g>
			</g>
			<g>
				<g>
					<rect x="17.8" y="18.2" class="st9" width="2.9" height="0.7"/>
				</g>
			</g>
			<g>
				<g>
					<rect x="17.8" y="20.2" class="st9" width="2.9" height="0.7"/>
				</g>
			</g>
			<g>
				<g>
					<rect x="26.4" y="16.1" class="st9" width="8.9" height="0.7"/>
				</g>
			</g>
			<g>
				<g>
					<rect x="26.4" y="18.2" class="st9" width="8.9" height="0.7"/>
				</g>
			</g>
			<g>
				<g>
					<rect x="26.4" y="20.2" class="st9" width="8.9" height="0.7"/>
				</g>
			</g>
			<g>
				<g>
					<rect x="22" y="16.1" class="st9" width="2" height="0.7"/>
				</g>
			</g>
			<g>
				<g>
					<rect x="22" y="18.2" class="st9" width="2" height="0.7"/>
				</g>
			</g>
			<g>
				<g>
					<rect x="22" y="20.2" class="st9" width="2" height="0.7"/>
				</g>
			</g>
			<g>
				<g>
					<rect x="24.9" y="16.1" class="st9" width="0.5" height="0.7"/>
				</g>
			</g>
			<g>
				<g>
					<rect x="24.9" y="18.2" class="st9" width="0.5" height="0.7"/>
				</g>
			</g>
			<g>
				<g>
					<rect x="24.9" y="20.2" class="st9" width="0.5" height="0.7"/>
				</g>
			</g>
			<g>
				<g>
					<rect x="16.5" y="16.1" class="st9" width="0.5" height="0.7"/>
				</g>
			</g>
			<g>
				<g>
					<rect x="16.5" y="18.2" class="st9" width="0.5" height="0.7"/>
				</g>
			</g>
			<g>
				<g>
					<rect x="16.5" y="20.2" class="st9" width="0.5" height="0.7"/>
				</g>
			</g>
			<g>
				<g>
					<rect x="17.8" y="24.3" class="st9" width="4.5" height="0.7"/>
				</g>
			</g>
			<g>
				<g>
					<rect x="28.5" y="24.3" class="st9" width="6.8" height="0.7"/>
				</g>
			</g>
			<g>
				<g>
					<rect x="23.6" y="24.3" class="st9" width="2.6" height="0.7"/>
				</g>
			</g>
			<g>
				<g>
					<rect x="27" y="24.3" class="st9" width="0.5" height="0.7"/>
				</g>
			</g>
			<g>
				<g>
					<rect x="35.5" y="28.5" class="st9" width="21" height="0.7"/>
				</g>
			</g>
			<g>
				<g>
					<rect x="23.8" y="28.5" class="st9" width="10" height="0.7"/>
				</g>
			</g>
			<g>
				<g>
					<rect x="43.1" y="24.3" class="st9" width="6.8" height="0.7"/>
				</g>
			</g>
			<g>
				<g>
					<rect x="37.1" y="24.3" class="st9" width="3.6" height="0.7"/>
				</g>
			</g>
			<g>
				<g>
					<rect x="41.6" y="24.3" class="st9" width="0.5" height="0.7"/>
				</g>
			</g>
			<g>
				<g>
					<rect x="50.6" y="24.3" class="st9" width="0.5" height="0.7"/>
				</g>
			</g>
			<g>
				<g>
					<rect x="16.5" y="24.3" class="st9" width="0.5" height="0.7"/>
				</g>
			</g>
			<g>
				<g>
					<rect x="17.8" y="32.6" class="st9" width="4.5" height="0.7"/>
				</g>
			</g>
			<g>
				<g>
					<rect x="16.5" y="32.6" class="st9" width="0.5" height="0.7"/>
				</g>
			</g>
			<g>
				<g>
					<rect x="23.2" y="32.6" class="st9" width="0.5" height="0.7"/>
				</g>
			</g>
			<g>
				<g>
					<rect x="14.4" y="40.8" class="st9" width="4.5" height="0.7"/>
				</g>
			</g>
			<g>
				<g>
					<rect x="13" y="40.8" class="st9" width="0.5" height="0.7"/>
				</g>
			</g>
			<g>
				<g>
					<rect x="19.7" y="40.8" class="st9" width="0.5" height="0.7"/>
				</g>
			</g>
			<g>
				<g>
					<rect x="20.2" y="30.5" class="st9" width="0.5" height="0.7"/>
				</g>
			</g>
			<g>
				<g>
					<rect x="20.2" y="26.4" class="st9" width="2.6" height="0.7"/>
				</g>
			</g>
			<g>
				<g>
					<rect x="23.8" y="26.4" class="st9" width="10.2" height="0.7"/>
				</g>
			</g>
			<g>
				<g>
					<rect x="41.5" y="16.1" class="st9" width="8.9" height="0.7"/>
				</g>
			</g>
			<g>
				<g>
					<rect x="41.5" y="18.2" class="st9" width="8.9" height="0.7"/>
				</g>
			</g>
			<g>
				<g>
					<rect x="41.5" y="20.2" class="st9" width="8.9" height="0.7"/>
				</g>
			</g>
			<g>
				<g>
					<rect x="50.8" y="16.1" class="st9" width="4.1" height="0.7"/>
				</g>
			</g>
			<g>
				<g>
					<rect x="50.8" y="18.2" class="st9" width="9.8" height="0.7"/>
				</g>
			</g>
			<g>
				<g>
					<rect x="50.8" y="20.2" class="st9" width="13.7" height="0.7"/>
				</g>
			</g>
			<g>
				<g>
					<rect x="37.1" y="16.1" class="st9" width="2" height="0.7"/>
				</g>
			</g>
			<g>
				<g>
					<rect x="37.1" y="18.2" class="st9" width="2" height="0.7"/>
				</g>
			</g>
			<g>
				<g>
					<rect x="37.1" y="20.2" class="st9" width="2" height="0.7"/>
				</g>
			</g>
			<g>
				<g>
					<rect x="40" y="16.1" class="st9" width="0.5" height="0.7"/>
				</g>
			</g>
			<g>
				<g>
					<rect x="40" y="18.2" class="st9" width="0.5" height="0.7"/>
				</g>
			</g>
			<g>
				<g>
					<rect x="40" y="20.2" class="st9" width="0.5" height="0.7"/>
				</g>
			</g>
			<g>
				<g>
					<rect x="57" y="16.1" class="st9" width="0.5" height="0.7"/>
				</g>
			</g>
			<g>
				<g>
					<rect x="62.2" y="18.2" class="st9" width="0.5" height="0.7"/>
				</g>
			</g>
			<g>
				<g>
					<rect x="65.7" y="20.2" class="st9" width="0.5" height="0.7"/>
				</g>
			</g>
			<g>
				<g>
					<rect x="16.4" y="22.3" class="st9" width="17.5" height="0.7"/>
				</g>
			</g>
			<g>
				<g>
					<rect x="14.3" y="45.2" class="st9" width="2.9" height="0.7"/>
				</g>
			</g>
			<g>
				<g>
					<rect x="21.1" y="49.3" class="st9" width="2.9" height="0.7"/>
				</g>
			</g>
			<g>
				<g>
					<rect x="29.6" y="49.3" class="st9" width="19.2" height="0.7"/>
				</g>
			</g>
			<g>
				<g>
					<rect x="16.6" y="47.2" class="st9" width="28.1" height="0.7"/>
				</g>
			</g>
			<g>
				<g>
					<rect x="25.2" y="49.3" class="st9" width="2" height="0.7"/>
				</g>
			</g>
			<g>
				<g>
					<rect x="28.1" y="49.3" class="st9" width="0.5" height="0.7"/>
				</g>
			</g>
			<g>
				<g>
					<rect x="12.9" y="45.2" class="st9" width="0.5" height="0.7"/>
				</g>
			</g>
			<g>
				<g>
					<rect x="17.8" y="45.2" class="st9" width="0.5" height="0.7"/>
				</g>
			</g>
			<g>
				<g>
					<rect x="24.9" y="51.4" class="st9" width="1.3" height="0.7"/>
				</g>
			</g>
			<g>
				<g>
					<rect x="23.6" y="51.4" class="st9" width="0.5" height="0.7"/>
				</g>
			</g>
			<g>
				<g>
					<rect x="26.9" y="51.4" class="st9" width="0.5" height="0.7"/>
				</g>
			</g>
			<g>
				<g>
					<rect x="28.6" y="55.5" class="st9" width="1.3" height="0.7"/>
				</g>
			</g>
			<g>
				<g>
					<rect x="27.2" y="55.5" class="st9" width="0.5" height="0.7"/>
				</g>
			</g>
			<g>
				<g>
					<rect x="30.6" y="55.5" class="st9" width="0.5" height="0.7"/>
				</g>
			</g>
			<g>
				<g>
					<rect x="19.7" y="49.3" class="st9" width="0.5" height="0.7"/>
				</g>
			</g>
			<g>
				<g>
					<rect x="49.4" y="49.3" class="st9" width="0.5" height="0.7"/>
				</g>
			</g>
			<g>
				<g>
					<rect x="16.4" y="34.6" class="st9" width="24" height="0.7"/>
				</g>
			</g>
			<g>
				<g>
					<rect x="16.4" y="36.7" class="st9" width="35.6" height="0.7"/>
				</g>
			</g>
			<g>
				<g>
					<rect x="16.4" y="38.8" class="st9" width="12.1" height="0.7"/>
				</g>
			</g>
			<g>
				<g>
					<rect x="6.8" y="14.1" class="st9" width="1.3" height="0.7"/>
				</g>
			</g>
			<g>
				<g>
					<rect x="6.8" y="16.1" class="st9" width="1.3" height="0.7"/>
				</g>
			</g>
			<g>
				<g>
					<rect x="6.8" y="18.2" class="st9" width="1.3" height="0.7"/>
				</g>
			</g>
			<g>
				<g>
					<rect x="6.8" y="20.2" class="st9" width="1.3" height="0.7"/>
				</g>
			</g>
			<g>
				<g>
					<rect x="6.8" y="22.3" class="st9" width="1.3" height="0.7"/>
				</g>
			</g>
			<g>
				<g>
					<rect x="6.8" y="24.3" class="st9" width="1.3" height="0.7"/>
				</g>
			</g>
			<g>
				<g>
					<rect x="6.8" y="26.4" class="st9" width="1.3" height="0.7"/>
				</g>
			</g>
			<g>
				<g>
					<rect x="6.8" y="28.5" class="st9" width="1.3" height="0.7"/>
				</g>
			</g>
			<g>
				<g>
					<rect x="6.8" y="30.5" class="st9" width="1.3" height="0.7"/>
				</g>
			</g>
			<g>
				<g>
					<rect x="6.8" y="32.6" class="st9" width="1.3" height="0.7"/>
				</g>
			</g>
			<g>
				<g>
					<rect x="6.8" y="34.6" class="st9" width="1.3" height="0.7"/>
				</g>
			</g>
			<g>
				<g>
					<rect x="6.8" y="36.7" class="st9" width="1.3" height="0.7"/>
				</g>
			</g>
			<g>
				<g>
					<rect x="6.8" y="38.8" class="st9" width="1.3" height="0.7"/>
				</g>
			</g>
			<g>
				<g>
					<rect x="6.8" y="40.8" class="st9" width="1.3" height="0.7"/>
				</g>
			</g>
			<g>
				<g>
					<rect x="6.8" y="42.9" class="st9" width="1.3" height="0.7"/>
				</g>
			</g>
			<g>
				<g>
					<rect x="6.8" y="44.9" class="st9" width="1.3" height="0.7"/>
				</g>
			</g>
			<g>
				<g>
					<rect x="6.8" y="47" class="st9" width="1.3" height="0.7"/>
				</g>
			</g>
		</g>
	</g>
</g>
</svg>
